<svg xmlns="http://www.w3.org/2000/svg" viewBox="0 0 691.78 691.77"><title>cog</title><g id="Layer_2" data-name="Layer 2"><g id="Layer_1-2" data-name="Layer 1"><path d="M329.31,656l2.42,35.8h28.33L362.47,656c7-.37,14-1.06,20.92-1.89L392,689l27.9-4.93-3.84-35.72c6.85-1.59,13.63-3.35,20.29-5.39l14.52,32.82,26.62-9.7-10-34.48c6.45-2.75,12.76-5.78,19-9l20.07,29.9,24.53-14.18L515.23,606c5.86-3.82,11.61-7.79,17.18-12l25,26,21.7-18.22-21.29-29.15q7.65-7.15,14.81-14.81l29.16,21.29L620,557.35l-26-25c4.2-5.57,8.17-11.32,12-17.18l32.37,15.87,14.15-24.54L622.63,486.5c3.17-6.23,6.2-12.53,9-19l34.5,10,9.67-26.63L643,436.35c2-6.67,3.79-13.45,5.38-20.3l35.74,3.84L689,392l-34.9-8.61c.83-6.92,1.52-13.87,1.89-20.91l35.81-2.41V331.71L656,329.29c-.37-7-1.06-14-1.89-20.9L689,299.78l-4.93-27.91-35.73,3.84c-1.59-6.85-3.35-13.63-5.38-20.3l32.81-14.51-9.69-26.63-34.48,10c-2.76-6.46-5.79-12.76-9-19l29.9-20.06-14.18-24.54L606,176.55c-3.82-5.85-7.8-11.61-12-17.18l26-25-18.23-21.7L572.6,134q-7.15-7.65-14.81-14.8L579.08,90,557.37,71.81l-25,26c-5.57-4.2-11.32-8.17-17.18-12l15.88-32.36L506.56,39.26,486.51,69.15c-6.22-3.18-12.53-6.2-19-9l10-34.49L450.88,16,436.36,48.83c-6.66-2-13.44-3.81-20.29-5.39l3.84-35.73L392,2.8l-8.61,34.89c-6.91-.84-13.86-1.52-20.9-1.89L360.06,0H331.73l-2.42,35.8c-7,.37-14,1.05-20.91,1.89l-8.62-34.9L271.87,7.72l3.84,35.71c-6.84,1.59-13.62,3.36-20.28,5.39L240.91,16,214.28,25.7l10,34.48c-6.45,2.75-12.75,5.78-19,9L185.22,39.25,160.68,53.42l15.87,32.36c-5.85,3.82-11.61,7.78-17.18,12l-25-26L112.71,90,134,119.17q-7.67,7.15-14.81,14.8L90,112.69,71.82,134.4l26,24.95c-4.2,5.58-8.17,11.33-12,17.19L53.42,160.66,39.26,185.21l29.88,20c-3.17,6.22-6.2,12.53-9,19l-34.47-10L16,240.9l32.8,14.51c-2,6.67-3.8,13.45-5.39,20.29L7.72,271.87,2.8,299.78l34.89,8.61c-.84,6.9-1.52,13.87-1.89,20.91L0,331.71v28.34l35.79,2.42c.37,7,1.05,14,1.89,20.91L2.8,392,7.72,419.9l35.72-3.84c1.59,6.85,3.35,13.63,5.39,20.29L16,450.87l9.69,26.62,34.47-10c2.76,6.44,5.79,12.74,9,19L39.26,506.56l14.16,24.53,32.36-15.87c3.83,5.86,7.8,11.62,12,17.18l-26,25L90,579.06l29.15-21.27q7.16,7.63,14.81,14.81L112.7,601.75,134.41,620l25-26c5.58,4.2,11.34,8.18,17.19,12l-15.87,32.35,24.54,14.16,20.05-29.88c6.23,3.17,12.53,6.2,19,9l-10,34.49,26.63,9.68L255.42,643c6.67,2,13.45,3.79,20.29,5.38l-3.82,35.73,27.89,4.9,8.61-34.88C315.31,654.91,322.27,655.6,329.31,656Zm20.93-23.65v-9A275.47,275.47,0,0,0,539,545.13l6.28,6.29A285.52,285.52,0,0,1,350.24,632.32ZM545.15,539a275.42,275.42,0,0,0,78.16-188.73h9a285.39,285.39,0,0,1-80.9,195Zm-98.29-98.28-19-19a111.34,111.34,0,0,0,29.64-71.47h26.8A137.91,137.91,0,0,1,446.86,440.69Zm86.06-51.19A22.52,22.52,0,1,1,504.05,403,22.52,22.52,0,0,1,532.92,389.5ZM207.46,350.24h26.8a111.36,111.36,0,0,0,29.64,71.47l-19,19A138,138,0,0,1,207.46,350.24Zm-58.91,70.67a22.52,22.52,0,1,1,28.87,13.46A22.53,22.53,0,0,1,148.55,420.91Zm9.29-94.83a22.52,22.52,0,1,1-22.52,22.52A22.51,22.51,0,0,1,157.84,326.08Zm87.08-75,19,19a111.32,111.32,0,0,0-29.63,71.46H207.46A138,138,0,0,1,244.92,251.08ZM161.09,305a22.51,22.51,0,1,1,28.85-13.46A22.52,22.52,0,0,1,161.09,305Zm323.23,36.55h-26.8a111.38,111.38,0,0,0-29.64-71.46l19-19A137.91,137.91,0,0,1,484.32,341.52Zm61.12-67.95a22.51,22.51,0,1,1-28.86-13.45A22.52,22.52,0,0,1,545.44,273.57ZM419.62,341.52a73.54,73.54,0,0,0-18.5-44.7l21.1-21.11a103.37,103.37,0,0,1,27.3,65.81Zm-129-44.7a73.56,73.56,0,0,0-18.5,44.7h-29.9a103.46,103.46,0,0,1,27.29-65.81Zm-18.5,53.42A73.53,73.53,0,0,0,290.66,395l-21.11,21.1a103.31,103.31,0,0,1-27.29-65.81Zm129,44.71a73.45,73.45,0,0,0,18.5-44.71h29.91a103.38,103.38,0,0,1-27.31,65.82ZM395,290.65a73.58,73.58,0,0,0-44.72-18.51V242.23a103.37,103.37,0,0,1,65.82,27.32Zm-53.43-18.51a73.59,73.59,0,0,0-44.71,18.52l-21.11-21.11a103.35,103.35,0,0,1,65.82-27.31Zm-44.71,129a73.59,73.59,0,0,0,44.71,18.52v29.9a103.35,103.35,0,0,1-65.82-27.31Zm53.42,18.52A73.62,73.62,0,0,0,395,401.11l21.1,21.11a103.31,103.31,0,0,1-65.82,27.31Zm163.4-73.74a22.52,22.52,0,1,1,22.51,22.5A22.52,22.52,0,0,1,513.64,345.89Zm64.64-4.37a231.65,231.65,0,0,0-65-156.88l8.36-8.36a242.51,242.51,0,0,1,68.45,165.24Zm-70-131.38a22.51,22.51,0,1,1-31.72-2.77A22.51,22.51,0,0,1,508.28,210.14ZM459.9,194a22.51,22.51,0,1,1-8.24-30.75A22.52,22.52,0,0,1,459.9,194Zm-59.22-29.37a22.51,22.51,0,1,1-18.26-26.08A22.5,22.5,0,0,1,400.68,164.63Zm40,80.28-19,19a111.25,111.25,0,0,0-71.47-29.66V207.46A138.05,138.05,0,0,1,440.69,244.91Zm-99.16-10.67a111.38,111.38,0,0,0-71.47,29.66l-19-19a138,138,0,0,1,90.44-37.46Zm-6.54-77A22.51,22.51,0,1,1,308.91,139,22.52,22.52,0,0,1,335,157.29Zm-64.24,15.56A22.51,22.51,0,1,1,240,164.6,22.51,22.51,0,0,1,270.75,172.85ZM215.7,209.44A22.52,22.52,0,1,1,184,212.22,22.52,22.52,0,0,1,215.7,209.44Zm-37.23-24.81a231.63,231.63,0,0,0-65,156.89H101.66a242.48,242.48,0,0,1,68.45-165.25Zm-65,165.61a231.64,231.64,0,0,0,65,156.9l-8.28,8.28a243.43,243.43,0,0,1-68.53-165.18Zm72.23,134.1a22.52,22.52,0,1,1,31.72,2.77A22.52,22.52,0,0,1,185.72,484.34Zm48.39,16.14a22.51,22.51,0,1,1,8.23,30.75A22.47,22.47,0,0,1,234.11,500.48Zm59.22,29.36a22.51,22.51,0,1,1,18.24,26.09A22.5,22.5,0,0,1,293.33,529.84Zm-42.24-83,19-19a111.38,111.38,0,0,0,71.47,29.66v26.79A138,138,0,0,1,251.09,446.85Zm99.15,10.68a111.4,111.4,0,0,0,71.48-29.66l19,19a138,138,0,0,1-90.45,37.47ZM359,537.19a22.52,22.52,0,1,1,26.07,18.27A22.5,22.5,0,0,1,359,537.19Zm64.24-15.56A22.51,22.51,0,1,1,454,529.88,22.5,22.5,0,0,1,423.26,521.63ZM478.31,485A22.51,22.51,0,1,1,510,482.26,22.5,22.5,0,0,1,478.31,485Zm35,22.1a231.66,231.66,0,0,0,65-156.89h11.83a242.48,242.48,0,0,1-68.45,165.25Zm84.8-165.61a250.42,250.42,0,0,0-70.78-170.9l6.51-6.51a259.58,259.58,0,0,1,73.49,177.41Zm-91-163a231.6,231.6,0,0,0-156.9-65V101.66a242.48,242.48,0,0,1,165.25,68.45Zm-165.61-65a231.61,231.61,0,0,0-156.89,65l-8.37-8.36a242.5,242.5,0,0,1,165.26-68.45ZM164.46,170.62a250.38,250.38,0,0,0-70.8,170.9H84.45A259.6,259.6,0,0,1,157.94,164.1ZM93.66,350.24a251.45,251.45,0,0,0,70.88,170.83L158,527.58A260.48,260.48,0,0,1,84.45,350.24Zm91,163a231.58,231.58,0,0,0,156.89,65v11.83a243.55,243.55,0,0,1-165.18-68.52Zm165.6,65a231.69,231.69,0,0,0,156.91-65l8.36,8.37a242.57,242.57,0,0,1-165.27,68.45Zm177.08-57.13A250.44,250.44,0,0,0,598.1,350.24h9.22a259.62,259.62,0,0,1-73.49,177.43Zm96-179.63a275.42,275.42,0,0,0-78.17-188.73l6.28-6.28a285.43,285.43,0,0,1,80.9,195ZM521.16,164.46a250.51,250.51,0,0,0-170.92-70.8V84.45a259.62,259.62,0,0,1,177.43,73.49ZM341.53,93.66a250.45,250.45,0,0,0-170.91,70.79l-6.52-6.51A259.58,259.58,0,0,1,341.53,84.45Zm-194.9,59.13A275.56,275.56,0,0,0,68.45,341.52h-9a285.51,285.51,0,0,1,80.91-195ZM59.44,350.24h9a276.55,276.55,0,0,0,78.27,188.65l-6.37,6.36A285.49,285.49,0,0,1,59.44,350.24Zm111.26,177A251.4,251.4,0,0,0,341.53,598.1v9.22a260.52,260.52,0,0,1-177.34-73.58ZM350.24,598.1a250.48,250.48,0,0,0,170.92-70.79l6.51,6.52a259.66,259.66,0,0,1-177.43,73.5Zm195-457.75L539,146.63A275.51,275.51,0,0,0,350.24,68.45v-9A285.58,285.58,0,0,1,545.26,140.35ZM341.53,59.44v9a275.5,275.5,0,0,0-188.74,78.18l-6.28-6.28A285.49,285.49,0,0,1,341.53,59.44Zm-195,492,6.37-6.37a276.51,276.51,0,0,0,188.65,78.27v9A285.5,285.5,0,0,1,146.51,551.42Z"/></g></g></svg>