<svg xmlns="http://www.w3.org/2000/svg" viewBox="0 0 174.71 324.6">
    <defs>
        <style>.cls-1{fill:none;stroke:#000;stroke-miterlimit:10;}</style>
    </defs>
    <title>Face line</title>
    <g id="Layer_2" data-name="Layer 2">
        <g id="Layer_1-2" data-name="Layer 1">
            <path class="cls-1" d="M90.65.13c-2.23,8.6-3.83,20.51,0,33.15,5.62,18.59,18.25,23.16,16.19,33.15-3,14.5-31.77,15.38-33.13,30.47-.42,4.66,2,8.42,2.81,9.7,5.19,8.1,16.12,9.72,29.16,11.48,15.23,2.06,19.92-.06,26.17,4.56,6.51,4.8,10.11,13.52,8.14,15.49s-9.86-1.26-34.31-20a58.32,58.32,0,0,1,17.12-4.78c17.72-2.08,28.45,5.27,30.15,2.45,2.13-3.53-11.21-20.79-28.82-22.86-9.4-1.1-17.89,2.37-23.58,4.7-7.32,3-10.92,4.52-12.65,8-5.61,11.14,15.25,32.28,16.36,33.38,10,9.94,14.59,9.12,17.88,16.64,4,9.19.83,18.92-2.23,28.24-3.84,11.69-6.89,21-14.24,24.49-13.19,6.32-33-9.27-53.39-25.6-29.93-24-41.5-42.93-48.24-39.64-6.51,3.17-2.26,24-1.19,29.23,5.72,28,22.49,46.94,30.92,55.09,3.61,3.49,18.73,12,49,28.9,5.48,3.07,12.94,7.17,15.37,4.83,3-2.85-4.51-12.37-8.31-26.76s-.9-22.1-.74-34.93c.36-29.6-14.27-53.85-24.16-70.24C48.28,101.61,35.2,97.31,37.78,86.07,40.79,73,59.26,75.68,86.47,56c27.41-19.85,30.32-38.28,44.33-37.11,16.94,1.43,28.18,29.68,30,34.51,4.58,12.19,1.14,13.73,7.54,36.58,4.24,15.13,7.26,18.69,5.24,25.15-4.09,13.08-21.23,15-20.39,21.71.77,6.13,15.75,11.14,18.22,8.06,2.35-2.92-4.54-15.51-11.22-14.91-3.88.34-6.25,5-6.41,5.35-2.65,5.41-.52,11.6,5.67,24.52C170,181.91,175,187.09,172.5,193.74c-1.66,4.46-6.13,8.15-10.47,8.78-4.71.68-6.39-2.65-14.29-5.07-9.85-3-15.65-.45-16.37-2.54-1.13-3.3,12.09-13.38,17.34-10.14,2.92,1.79.11,6.29,2.35,15.6,2.63,10.95,8.8,14.45,6.78,19.55-1.28,3.22-4.82,4.53-8.18,5.78-10.68,4-23.2.16-23.2-2.29,0-3.82,30.2-7.26,31.38-3.49.5,1.6-4.63,3.28-6.33,9.36-.88,3.11.08,4-1,7.06-.14.37-2.35,6.28-6.67,7.45-6.76,1.83-15.59-8.77-14.64-10.21.57-.86,5.53.33,7.65,3.53,2.3,3.46.38,7.93-.9,12.64-4.2,15.47,2.11,20.05-1.81,25.29-7.58,10.13-38.91,3.18-59.38-1.36-9.63-2.13-17.9-4.55-22.76-.06-3.08,2.85-3.4,7.2-3.2,19.25.13,8.19.49,19,1.4,31.69"/>
        </g>
    </g>
</svg>